<?xml version="1.0" encoding="utf-8"?>
<!-- Generator: Adobe Illustrator 15.0.0, SVG Export Plug-In . SVG Version: 6.00 Build 0)  -->
<!DOCTYPE svg PUBLIC "-//W3C//DTD SVG 1.1//EN" "http://www.w3.org/Graphics/SVG/1.1/DTD/svg11.dtd">
<svg version="1.1" id="Layer_1" xmlns="http://www.w3.org/2000/svg" xmlns:xlink="http://www.w3.org/1999/xlink" x="0px" y="0px"
	 width="40px" height="40px" viewBox="0 0 40 40" enable-background="new 0 0 40 40" xml:space="preserve">
<circle fill="#222222" cx="20" cy="20" r="20"/>
<path fill="#FFFFFF" d="M11.594,13.505h0.042c1.719,0,2.79-1.142,2.79-2.565c-0.042-1.464-1.071-2.578-2.761-2.578
	s-2.79,1.113-2.79,2.578C8.875,12.363,9.945,13.505,11.594,13.505z M9.156,30.382h4.945V15.533H9.156V30.382z M26.217,15.181
	c-2.619,0-3.789,1.437-4.45,2.451v0.042h-0.029c0-0.014,0.015-0.028,0.029-0.042v-2.099h-4.932c0.056,1.381,0,14.849,0,14.849h4.932
	v-8.298c0-0.438,0.027-0.888,0.168-1.197c0.353-0.888,1.17-1.818,2.521-1.818c1.79,0,2.508,1.367,2.508,3.367v7.946h4.933v-8.523
	C31.896,17.294,29.458,15.181,26.217,15.181z"/>
</svg>
