<?xml version="1.0" encoding="utf-8"?>
<!-- Generator: Adobe Illustrator 15.0.0, SVG Export Plug-In . SVG Version: 6.00 Build 0)  -->
<!DOCTYPE svg PUBLIC "-//W3C//DTD SVG 1.1//EN" "http://www.w3.org/Graphics/SVG/1.1/DTD/svg11.dtd">
<svg version="1.1" id="Layer_1" xmlns="http://www.w3.org/2000/svg" xmlns:xlink="http://www.w3.org/1999/xlink" x="0px" y="0px"
	 width="40px" height="40px" viewBox="0 0 40 40" enable-background="new 0 0 40 40" xml:space="preserve">
<circle fill="#222222" cx="20" cy="20" r="20"/>
<path fill="#FFFFFF" d="M34.815,13.853c-1.047-0.015-3.23-0.304-6.159-1.896c-1.729-0.94-2.563-1.502-3.003-1.745
	c-0.122-0.061-0.289-0.137-0.289-0.212v9.588l0,0c0,2.018-1.714,4.065-4.188,4.961c-3.034,1.107-6.265,0.029-7.145-2.383
	c-0.88-2.427,0.971-5.279,4.005-6.386c1.76-0.638,3.322-0.546,5.036,0.106V9.135c-1.152-0.289-2.336-0.455-3.504-0.455
	c-6.629,0-12.061,5.127-12.061,11.454c0,6.312,5.34,11.438,11.97,11.438S31.6,26.445,31.6,20.134c0-0.531,0-1.047,0-1.548l0,0
	c0,0,2.063-0.728,2.883-1.896c0.834-1.168,0.804-1.335,0.804-1.335S35.862,13.868,34.815,13.853z"/>
</svg>
