<?xml version="1.0" encoding="utf-8"?>
<!-- Generator: Adobe Illustrator 15.0.0, SVG Export Plug-In . SVG Version: 6.00 Build 0)  -->
<!DOCTYPE svg PUBLIC "-//W3C//DTD SVG 1.1//EN" "http://www.w3.org/Graphics/SVG/1.1/DTD/svg11.dtd">
<svg version="1.1" id="Layer_1" xmlns="http://www.w3.org/2000/svg" xmlns:xlink="http://www.w3.org/1999/xlink" x="0px" y="0px"
	 width="40px" height="40px" viewBox="0 0 40 40" enable-background="new 0 0 40 40" xml:space="preserve">
<circle fill="#222222" cx="20" cy="20" r="20"/>
<path fill="#FFFFFF" d="M31.961,22.334c0.15-0.77,0.227-1.555,0.227-2.352c0-6.943-5.634-12.561-12.562-12.561
	c-0.828,0-1.626,0.076-2.395,0.226c-1.069-0.603-2.29-0.949-3.601-0.949c-4.021,0-7.29,3.269-7.29,7.29c0,1.31,0.347,2.53,0.95,3.6
	c-0.151,0.768-0.227,1.566-0.227,2.394c0,6.944,5.619,12.563,12.562,12.563c0.844,0,1.688-0.09,2.486-0.242
	c1.039,0.559,2.243,0.891,3.509,0.891c4.021,0,7.29-3.268,7.29-7.291C32.91,24.605,32.563,23.389,31.961,22.334z M25.002,27
	c-2.409,1.643-7.169,1.748-9.714,0c-1.115-0.766-2.319-2.316-2.064-3.795c0.105-0.617,0.752-1.266,1.642-1.234
	c1.837,0.047,1.717,2.576,3.223,3.373c2.124,1.115,5.422,0.105,5.438-1.896c0.016-1.658-1.988-2.062-3.706-2.471
	c-2.349-0.556-5.015-1.128-5.934-3.132c-0.918-1.974,0.016-3.931,1.145-4.865c1.04-0.844,2.546-1.175,4.052-1.311
	c1.897-0.166,4.368,0.105,5.845,1.311c0.617,0.512,1.476,1.611,1.399,2.726c-0.044,0.617-0.557,1.039-1.461,0.963
	c-1.731-0.135-1.355-1.702-3.312-2.455c-1.431-0.542-4.594-0.226-4.624,1.566c-0.016,1.566,2.65,1.988,4.035,2.319
	c2.486,0.588,4.896,1.176,5.771,3.133C27.818,23.627,26.463,26.008,25.002,27z"/>
</svg>
