<?xml version="1.0" encoding="utf-8"?>
<!-- Generator: Adobe Illustrator 15.0.0, SVG Export Plug-In . SVG Version: 6.00 Build 0)  -->
<!DOCTYPE svg PUBLIC "-//W3C//DTD SVG 1.1//EN" "http://www.w3.org/Graphics/SVG/1.1/DTD/svg11.dtd">
<svg version="1.1" id="Layer_1" xmlns="http://www.w3.org/2000/svg" xmlns:xlink="http://www.w3.org/1999/xlink" x="0px" y="0px"
	 width="40px" height="40px" viewBox="0 0 40 40" enable-background="new 0 0 40 40" xml:space="preserve">
<circle fill="#222222" cx="20" cy="20" r="20"/>
<path fill="#FFFFFF" d="M16.709,14.328c-0.306,0-0.561,0.255-0.561,0.562v11.586c0,0.307,0.255,0.561,0.561,0.561
	s0.562-0.254,0.562-0.561V14.89C17.271,14.583,17.015,14.328,16.709,14.328z M14.923,13.784c-0.306,0-0.562,0.255-0.562,0.562
	v12.131c0,0.307,0.256,0.561,0.562,0.561s0.561-0.254,0.561-0.561V14.346C15.484,14.039,15.229,13.784,14.923,13.784z
	 M13.137,14.141c-0.306,0-0.562,0.256-0.562,0.562v11.774c0,0.307,0.256,0.561,0.562,0.561s0.561-0.254,0.561-0.561V14.703
	C13.697,14.396,13.443,14.141,13.137,14.141z M11.35,15.638c-0.306,0-0.561,0.255-0.561,0.562v10.277
	c0,0.307,0.255,0.561,0.561,0.561c0.324,0,0.562-0.254,0.562-0.561V16.2C11.911,15.893,11.673,15.638,11.35,15.638z M9.564,16.591
	c-0.307,0-0.562,0.238-0.562,0.561v9.324c0,0.307,0.255,0.561,0.562,0.561c0.323,0,0.561-0.254,0.561-0.561v-9.324
	C10.125,16.83,9.887,16.591,9.564,16.591z M7.777,16.71c-0.306,0-0.562,0.238-0.562,0.562v9.035c0,0.306,0.256,0.562,0.562,0.562
	c0.323,0,0.561-0.256,0.561-0.562v-9.035C8.338,16.948,8.1,16.71,7.777,16.71z M5.99,17.663c-0.306,0-0.561,0.238-0.561,0.562v7.18
	c0,0.306,0.255,0.562,0.561,0.562c0.324,0,0.579-0.256,0.579-0.562v-7.18C6.569,17.901,6.314,17.663,5.99,17.663z M4.221,20.521
	c-0.323,0-0.562,0.238-0.562,0.562v2.297c0,0.306,0.239,0.561,0.562,0.561c0.306,0,0.561-0.255,0.561-0.561v-2.297
	C4.782,20.759,4.527,20.521,4.221,20.521z M30.746,16.523c-0.204,0-0.393,0.017-0.597,0.034c-0.8-3.182-3.692-5.513-7.112-5.513
	c-1.87,0-3.589,0.698-4.882,1.855c-0.034,0.017-0.05,0.034-0.068,0.051l-0.017,0.017v0.017c-0.017,0-0.017,0.017-0.035,0.017
	c0,0.017,0,0.017,0,0.017c0,0.018-0.016,0.018-0.016,0.034c0,0-0.017,0-0.017,0.018c0,0,0,0.017-0.017,0.017v0.018
	c0,0.017-0.017,0.017-0.017,0.034v0.017c0,0.017-0.017,0.017-0.017,0.034v0.018c0,0.017,0,0.017,0,0.034
	c-0.018,0-0.018,0.017-0.018,0.034c0,0,0,0,0,0.017c0,0.017,0,0.035,0,0.051v13.135c0,0.017,0,0.033,0,0.05c0,0.018,0,0.018,0,0.018
	c0,0.018,0,0.034,0.018,0.034c0,0.017,0,0.017,0,0.034c0,0,0,0.018,0,0.034c0,0,0.017,0,0.017,0.016v0.018
	c0.017,0.018,0.017,0.018,0.017,0.035c0,0,0,0.016,0.017,0.016c0,0.018,0,0.018,0,0.034c0.017,0,0.017,0,0.017,0.019l0.016,0.016
	c0,0.018,0.018,0.018,0.018,0.018c0,0.017,0.017,0.017,0.017,0.034c0,0,0,0,0.017,0c0,0.018,0.018,0.018,0.018,0.033
	c0,0,0,0,0.017,0c0,0.018,0.017,0.018,0.017,0.035c0.017,0,0.017,0,0.017,0c0.084,0.067,0.205,0.118,0.341,0.118
	c0.017,0,0.05,0,0.068,0h11.96c0.068,0,0.137,0,0.222,0c2.909,0,5.257-2.348,5.257-5.257S33.655,16.523,30.746,16.523z"/>
</svg>
