<?xml version="1.0" encoding="utf-8"?>
<!-- Generator: Adobe Illustrator 15.0.0, SVG Export Plug-In . SVG Version: 6.00 Build 0)  -->
<!DOCTYPE svg PUBLIC "-//W3C//DTD SVG 1.1//EN" "http://www.w3.org/Graphics/SVG/1.1/DTD/svg11.dtd">
<svg version="1.1" id="Layer_1" xmlns="http://www.w3.org/2000/svg" xmlns:xlink="http://www.w3.org/1999/xlink" x="0px" y="0px"
	 width="40px" height="40px" viewBox="0 0 40 40" enable-background="new 0 0 40 40" xml:space="preserve">
<circle fill="#222222" cx="20" cy="20" r="20"/>
<path fill="#FFFFFF" d="M19.955,24.615c0-0.117-0.017-0.219-0.05-0.336c-0.185-0.59-0.824-0.925-1.43-0.74
	c-0.185,0.066-0.353,0.168-0.487,0.319l-4.54,5.516c-0.185,0.285-0.252,0.639-0.151,0.975c0.118,0.337,0.354,0.589,0.639,0.706
	c0.168,0.067,4.54,1.816,4.624,1.851c0.219,0.084,0.487,0.101,0.74,0.017c0.504-0.151,0.824-0.639,0.807-1.145
	C20.089,31.693,19.955,24.717,19.955,24.615z M30.497,24.498c-0.101-0.018-6.726-2.169-6.826-2.203s-0.219-0.051-0.337-0.067
	c-0.622-0.017-1.144,0.487-1.159,1.109c-0.018,0.202,0.033,0.403,0.134,0.571l3.733,6.088c0.201,0.269,0.521,0.453,0.874,0.471
	c0.353,0,0.655-0.135,0.874-0.387c0.118-0.118,3.195-3.683,3.246-3.75c0.167-0.185,0.269-0.438,0.269-0.706
	C31.321,25.103,30.985,24.648,30.497,24.498z M17.349,22.143c0.555-0.303,0.757-0.991,0.454-1.547
	c-0.101-0.167-0.235-0.319-0.403-0.42l-6.322-3.363c-0.303-0.118-0.656-0.118-0.976,0.05c-0.302,0.168-0.504,0.454-0.571,0.773
	c-0.034,0.168-0.875,4.809-0.892,4.877c-0.05,0.251-0.016,0.504,0.118,0.757c0.252,0.453,0.79,0.672,1.277,0.537
	c0.084-0.016,6.911-1.53,7.012-1.547C17.147,22.244,17.248,22.193,17.349,22.143z M23.2,20.143c0.117,0,0.219-0.017,0.336-0.051
	c0.084-0.033,6.793-1.984,6.877-2c0.488-0.135,0.857-0.572,0.857-1.093c0-0.269-0.101-0.521-0.252-0.723
	c-0.05-0.051-3.01-3.716-3.128-3.851c-0.219-0.235-0.521-0.387-0.874-0.387c-0.353,0-0.673,0.168-0.892,0.42l-3.9,5.986
	c-0.101,0.168-0.168,0.353-0.168,0.572C22.057,19.639,22.578,20.143,23.2,20.143z M20.174,6.237c0.05-0.504-0.219-1.009-0.707-1.21
	c-0.252-0.102-0.521-0.102-0.756-0.034c-0.084,0.034-6.188,2.102-6.356,2.153C12.052,7.262,11.8,7.481,11.666,7.8
	c-0.135,0.336-0.084,0.706,0.084,0.992l6.407,8.189c0.117,0.151,0.269,0.286,0.47,0.353c0.572,0.235,1.244-0.051,1.48-0.639
	c0.034-0.101,0.067-0.218,0.067-0.319C20.19,16.275,20.157,6.321,20.174,6.237z"/>
</svg>
