<?xml version="1.0" encoding="utf-8"?>
<!-- Generator: Adobe Illustrator 15.0.0, SVG Export Plug-In . SVG Version: 6.00 Build 0)  -->
<!DOCTYPE svg PUBLIC "-//W3C//DTD SVG 1.1//EN" "http://www.w3.org/Graphics/SVG/1.1/DTD/svg11.dtd">
<svg version="1.1" id="Layer_1" xmlns="http://www.w3.org/2000/svg" xmlns:xlink="http://www.w3.org/1999/xlink" x="0px" y="0px"
	 width="40px" height="40px" viewBox="0 0 40 40" enable-background="new 0 0 40 40" xml:space="preserve">
<circle fill="#222222" cx="20" cy="20" r="20"/>
<path fill="#FFFFFF" d="M33.212,15.441c0.016-2.109-1.721-3.83-3.846-3.83c-3.039-0.14-6.155-0.202-9.334-0.217
	c-3.179-0.015-6.295,0.031-9.35,0.156c-2.125-0.017-3.862,1.69-3.876,3.799c-0.125,1.674-0.186,3.348-0.186,5.023
	c-0.016,1.659,0.031,3.334,0.155,5.009c0,2.108,1.721,3.829,3.86,3.829c3.04,0.14,6.156,0.201,9.335,0.201
	c3.178,0.018,6.295-0.029,9.334-0.138c2.14,0,3.876-1.707,3.876-3.816c0.14-1.658,0.202-3.333,0.202-5.008
	C33.383,18.775,33.336,17.115,33.212,15.441z M16.838,24.838v-9.056l7.83,4.528L16.838,24.838z"/>
</svg>
