<?xml version="1.0" encoding="utf-8"?>
<!-- Generator: Adobe Illustrator 15.0.0, SVG Export Plug-In . SVG Version: 6.00 Build 0)  -->
<!DOCTYPE svg PUBLIC "-//W3C//DTD SVG 1.1//EN" "http://www.w3.org/Graphics/SVG/1.1/DTD/svg11.dtd">
<svg version="1.1" id="Layer_1" xmlns="http://www.w3.org/2000/svg" xmlns:xlink="http://www.w3.org/1999/xlink" x="0px" y="0px"
	 width="40px" height="40px" viewBox="0 0 40 40" enable-background="new 0 0 40 40" xml:space="preserve">
<circle fill="#222222" cx="20" cy="20" r="20"/>
<path fill="#FFFFFF" d="M10.78,27.923c0.249,0,0.497,0,0.761,0c1.865,0,3.466,0.046,5.207,0.932c1.321,0.7,2.424,1.787,3.714,2.549
	c1.229,0.73,2.643,1.477,4.072,1.647c2.906,0.342,4.072-3.155,3.59-5.424c-1.29,1.041-3.093,1.011-4.739,0.56
	c-1.555-0.513-4.026-2.13-4.026-2.13l0,0c-1.119-0.699-2.409-1.258-3.73-1.212c0-0.59,0.031-0.605,0.389-1.026
	c0.482-0.574,0.979-1.134,1.477-1.709c1.554-1.803,3.108-3.605,4.663-5.408c1.321-1.523,2.643-3.062,3.963-4.601
	c0.125-0.14,0.591-0.513,0.622-0.715c0.077-0.699,0.155-1.398,0.233-2.098c0.062-0.482-0.436-0.357-0.436-0.357l0,0
	c-2.145,0.435-4.352,0.653-6.543,0.56c-1.212-0.062-2.487-0.171-3.637-0.622c-0.031-0.031-0.28-0.14-0.513-0.264
	c-0.327-0.171-0.544-0.062-0.653,0.031c-0.093,0.108-0.202,0.233-0.28,0.341c-0.575,0.793-1.119,1.71-1.212,2.689
	c-0.015,0.217-0.046,0.684,0.078,0.964l0,0c0,0,0.016,0.031,0.046,0.093l0.016,0.016c0.28,0.389,1.539,1.523,6.45,0.529
	c-3.201,3.792-6.403,7.568-9.604,11.346l0,0c-0.171,0.202-0.202,0.544-0.202,0.544c0,0.684,0,1.352,0,2.02c0,0.016,0,0.171,0,0.327
	C10.546,27.844,10.687,27.906,10.78,27.923z"/>
</svg>
