<?xml version="1.0" encoding="utf-8"?>
<!-- Generator: Adobe Illustrator 15.0.0, SVG Export Plug-In . SVG Version: 6.00 Build 0)  -->
<!DOCTYPE svg PUBLIC "-//W3C//DTD SVG 1.1//EN" "http://www.w3.org/Graphics/SVG/1.1/DTD/svg11.dtd">
<svg version="1.1" id="Layer_1" xmlns="http://www.w3.org/2000/svg" xmlns:xlink="http://www.w3.org/1999/xlink" x="0px" y="0px"
	 width="40px" height="40px" viewBox="0 0 40 40" enable-background="new 0 0 40 40" xml:space="preserve">
<circle fill="#222222" cx="20" cy="20" r="20"/>
<path fill="#FFFFFF" d="M20.33,12.414L20.33,12.414 M20.283,12.414c-0.337,0-0.737,0.016-0.737,0.016V9.244l-3.153,0.336v3.25
	c-9.459,1.872-10.66,8.818-10.869,9.699c-0.208,0.881-0.48,2.754-0.48,2.754h14.501V23.57v-1.152v-7.812c0,0,0.512-0.08,0.737-0.08
	c10.035,0.048,10.292,8.243,10.292,8.243h-6.146v-6.274c0,0-0.912-0.8-3.777-0.752c0,0.384,0,6.675,0,6.675v1.152v1.713h14.854
	c0,0-0.145-1.922-0.4-2.754C34.848,21.697,32.96,12.478,20.283,12.414z M16.393,22.77H9.814c0,0-0.369-6.002,6.579-7.843V22.77z"/>
</svg>
