<?xml version="1.0" encoding="utf-8"?>
<!-- Generator: Adobe Illustrator 15.0.0, SVG Export Plug-In . SVG Version: 6.00 Build 0)  -->
<!DOCTYPE svg PUBLIC "-//W3C//DTD SVG 1.1//EN" "http://www.w3.org/Graphics/SVG/1.1/DTD/svg11.dtd">
<svg version="1.1" id="Layer_1" xmlns="http://www.w3.org/2000/svg" xmlns:xlink="http://www.w3.org/1999/xlink" x="0px" y="0px"
	 width="40px" height="40px" viewBox="0 0 40 40" enable-background="new 0 0 40 40" xml:space="preserve">
<circle fill="#222222" cx="20" cy="20" r="20"/>
<path fill="#FFFFFF" d="M19.302,14.795c0,1.291,0,1.8,0,2.778v1.803h-5.108v5.812h5.108v14.777C19.536,39.973,19.764,40,20,40
	c1.865,0,3.663-0.274,5.376-0.752V25.188h5.033l0.749-5.812h-5.782v-1.803c0,0-0.001-0.334-0.001-1.896
	c0-3.305,3.17-3.054,4.019-3.054s1.969,0,1.969,0V7.395c0,0-0.883-0.204-4.481-0.204C19.582,7.191,19.302,13.505,19.302,14.795z"/>
</svg>
