<?xml version="1.0" encoding="utf-8"?>
<!-- Generator: Adobe Illustrator 15.0.0, SVG Export Plug-In . SVG Version: 6.00 Build 0)  -->
<!DOCTYPE svg PUBLIC "-//W3C//DTD SVG 1.1//EN" "http://www.w3.org/Graphics/SVG/1.1/DTD/svg11.dtd">
<svg version="1.1" id="Layer_1" xmlns="http://www.w3.org/2000/svg" xmlns:xlink="http://www.w3.org/1999/xlink" x="0px" y="0px"
	 width="40px" height="40px" viewBox="0 0 40 40" enable-background="new 0 0 40 40" xml:space="preserve">
<circle fill="#222222" cx="20" cy="20" r="20"/>
<path fill="#FFFFFF" d="M14.291,18.662c-0.994-1.159-2.433-1.821-3.956-1.821c-1.225,0-2.433,0.447-3.36,1.258
	c-1.06,0.894-1.705,2.152-1.804,3.542c-0.116,1.374,0.331,2.715,1.225,3.773c0.993,1.142,2.433,1.805,3.956,1.821l0,0
	c1.224,0,2.433-0.447,3.36-1.259C15.896,24.123,16.144,20.829,14.291,18.662z M31.255,10.071L18.792,27.186
	c-0.397,0.446-0.728,0.215-0.86,0.05c-0.05-0.05-0.729-0.944-1.671-2.185c-0.381,0.761-0.91,1.456-1.589,2.035
	c-0.479,0.414-1.026,0.745-1.589,0.993l4.933,3.972c0,0,0.314,0.282,0.646,0l17.328-14.68L31.255,10.071z"/>
</svg>
