<?xml version="1.0" encoding="utf-8"?>
<!-- Generator: Adobe Illustrator 15.0.0, SVG Export Plug-In . SVG Version: 6.00 Build 0)  -->
<!DOCTYPE svg PUBLIC "-//W3C//DTD SVG 1.1//EN" "http://www.w3.org/Graphics/SVG/1.1/DTD/svg11.dtd">
<svg version="1.1" id="Layer_1" xmlns="http://www.w3.org/2000/svg" xmlns:xlink="http://www.w3.org/1999/xlink" x="0px" y="0px"
	 width="40px" height="40px" viewBox="0 0 40 40" enable-background="new 0 0 40 40" xml:space="preserve">
<circle fill="#222222" cx="20" cy="20" r="20"/>
<path fill="#FFFFFF" d="M20.012,36.61c1.715,0,3.369-0.261,4.924-0.744c-0.016-0.773,0.005-2.578,0.005-3.949
	c-0.047-0.641-0.114-2.238-1.62-3.265c5.933-0.501,8.579-3.56,8.967-7.871c0.32-2.83-0.183-5.135-1.916-6.915
	c0.775-1.757,0.205-4.175-0.183-5.18c-1.347-0.388-4.449,1.301-5.341,2.008c-1.825-0.73-6.959-0.981-9.697,0
	c-1.939-1.392-4.153-2.236-5.362-2.008c-1.119,2.51-0.388,4.883-0.183,5.18c-1.415,1.323-2.373,4.016-1.894,7.279
	c0.799,4.77,3.354,6.893,8.968,7.553c-1.209,0.251-1.392,1.165-1.506,1.552c-3.765,1.575-4.837-0.981-5.316-1.644
	c-1.575-2.008-2.99-1.415-3.081-1.391c-0.069,0.045-0.137,0.16-0.137,0.228c0.091,0.434,0.936,0.868,0.981,0.89
	c1.164,0.891,1.598,2.487,1.872,2.943c1.665,2.809,5.544,1.645,5.59,1.667c0,0.368,0,2.254,0,2.921
	C16.64,36.35,18.295,36.61,20.012,36.61z"/>
</svg>
