<?xml version="1.0" encoding="utf-8"?>
<!-- Generator: Adobe Illustrator 15.0.0, SVG Export Plug-In . SVG Version: 6.00 Build 0)  -->
<!DOCTYPE svg PUBLIC "-//W3C//DTD SVG 1.1//EN" "http://www.w3.org/Graphics/SVG/1.1/DTD/svg11.dtd">
<svg version="1.1" id="Layer_1" xmlns="http://www.w3.org/2000/svg" xmlns:xlink="http://www.w3.org/1999/xlink" x="0px" y="0px"
	 width="40px" height="40px" viewBox="0 0 40 40" enable-background="new 0 0 40 40" xml:space="preserve">
<circle fill="#222222" cx="20" cy="20" r="20"/>
<path fill="#FFFFFF" d="M28.839,6.654H20.33c-3.822,0-7.41,2.902-7.41,6.237c0,3.425,2.596,6.202,6.472,6.202
	c0.27,0,0.54-0.019,0.793-0.037c-0.253,0.487-0.433,1.028-0.433,1.605c0,0.937,0.522,1.712,1.171,2.344
	c-0.486,0-0.973,0.018-1.478,0.018c-4.741,0-8.383,3.011-8.383,6.13c0,3.082,4.002,5.011,8.726,5.011
	c5.391,0,8.383-3.065,8.383-6.147c0-2.452-0.739-3.93-2.992-5.534c-0.758-0.541-2.236-1.857-2.236-2.65
	c0-0.901,0.253-1.352,1.641-2.434c1.406-1.1,2.398-2.65,2.398-4.453c0-2.127-0.956-4.218-2.741-4.904h2.704L28.839,6.654z
	 M25.864,27.493c0.072,0.289,0.108,0.577,0.108,0.884c0,2.488-1.604,4.417-6.201,4.417c-3.264,0-5.625-2.055-5.625-4.543
	c0-2.434,2.92-4.47,6.201-4.435c0.757,0,1.46,0.126,2.109,0.343C24.241,25.385,25.504,26.088,25.864,27.493z M20.727,18.228
	c-0.037,0-0.054,0-0.091,0c-2.199-0.072-4.291-2.47-4.669-5.336c-0.378-2.884,1.1-5.102,3.299-5.03
	c2.182,0.072,4.272,2.38,4.651,5.264C24.296,15.957,22.871,18.228,20.727,18.228z"/>
</svg>
