<?xml version="1.0" encoding="utf-8"?>
<!-- Generator: Adobe Illustrator 15.0.0, SVG Export Plug-In . SVG Version: 6.00 Build 0)  -->
<!DOCTYPE svg PUBLIC "-//W3C//DTD SVG 1.1//EN" "http://www.w3.org/Graphics/SVG/1.1/DTD/svg11.dtd">
<svg version="1.1" id="Layer_1" xmlns="http://www.w3.org/2000/svg" xmlns:xlink="http://www.w3.org/1999/xlink" x="0px" y="0px"
	 width="40px" height="40px" viewBox="0 0 40 40" enable-background="new 0 0 40 40" xml:space="preserve">
<circle fill="#222222" cx="20" cy="20" r="20"/>
<path fill="#FFFFFF" d="M32.302,10.361c0-1.482-1.202-2.684-2.684-2.684l0,0H10.687c-1.481,0-2.683,1.202-2.683,2.684v19.067
	c0,1.482,1.202,2.684,2.683,2.684c0.031,0,0.061-0.004,0.091-0.005h18.749c0.031,0.001,0.06,0.005,0.091,0.005
	c1.481,0,2.684-1.201,2.684-2.684c0-0.023-0.003-0.047-0.005-0.071L32.302,10.361z M20.154,15.498c2.428,0,4.397,1.969,4.397,4.396
	c0,2.429-1.969,4.396-4.397,4.396s-4.397-1.968-4.397-4.396C15.757,17.467,17.726,15.498,20.154,15.498z M29.623,27.917v0.025
	h-0.001c-0.042,0.821-0.72,1.474-1.552,1.474v0.002H12.235l-0.001-0.002c-0.854,0-1.547-0.69-1.555-1.543h0v-9.891h2.291
	c-0.162,0.611-0.25,1.251-0.25,1.914c0,4.104,3.328,7.433,7.434,7.433c4.105,0,7.432-3.328,7.432-7.433
	c0-0.662-0.086-1.303-0.249-1.914h2.286v9.823c0,0.02,0.003,0.037,0.003,0.056C29.626,27.88,29.623,27.897,29.623,27.917z
	 M29.626,11.172l-0.001,3.31c0,0.009,0.001,0.019,0.001,0.028c0,0.01-0.001,0.019-0.001,0.027v0.013h-0.002
	c-0.021,0.41-0.358,0.736-0.773,0.736v0h-3.313v0c-0.427,0-0.772-0.345-0.776-0.771l0,0v-3.371c0-0.429,0.348-0.776,0.776-0.776
	c0.002,0,0.006,0,0.008,0l0,0h3.306c0.43,0,0.776,0.347,0.776,0.776C29.626,11.154,29.625,11.163,29.626,11.172L29.626,11.172z"/>
</svg>
