<?xml version="1.0" encoding="utf-8"?>
<!-- Generator: Adobe Illustrator 15.0.0, SVG Export Plug-In . SVG Version: 6.00 Build 0)  -->
<!DOCTYPE svg PUBLIC "-//W3C//DTD SVG 1.1//EN" "http://www.w3.org/Graphics/SVG/1.1/DTD/svg11.dtd">
<svg version="1.1" id="Layer_1" xmlns="http://www.w3.org/2000/svg" xmlns:xlink="http://www.w3.org/1999/xlink" x="0px" y="0px"
	 width="40px" height="40px" viewBox="0 0 40 40" enable-background="new 0 0 40 40" xml:space="preserve">
<circle fill="#222222" cx="20" cy="20" r="20"/>
<path fill="#FFFFFF" d="M22.54,24.499l-0.295-0.681l-2.695-6.115c-0.888-2.161-3.094-3.627-5.581-3.627c-3.361,0-6.1,2.725-6.1,6.1
	s2.739,6.1,6.1,6.1c2.354,0,4.396-1.317,5.418-3.272l1.082,2.503c-1.541,1.879-3.879,3.079-6.5,3.079
	c-4.634,0-8.395-3.762-8.395-8.41c0-4.634,3.76-8.395,8.395-8.395c3.508,0,6.337,1.866,7.772,5.182
	c0.104,0.252,1.51,3.554,2.738,6.352c0.771,1.747,1.422,2.902,3.524,2.962c2.073,0.073,3.495-1.185,3.495-2.784
	c0-1.555-1.097-1.925-2.918-2.531c-3.286-1.081-4.989-2.176-4.989-4.782c0-2.532,1.731-4.234,4.546-4.234
	c1.835,0,3.153,0.813,4.071,2.443l-1.807,0.918c-0.667-0.948-1.421-1.318-2.369-1.318c-1.317,0-2.265,0.917-2.265,2.131
	c0,1.732,1.554,2,3.73,2.71c2.916,0.947,4.265,2.028,4.265,4.737c0,2.843-2.444,4.915-5.626,4.915
	C25.205,28.467,23.636,27.03,22.54,24.499z"/>
</svg>
