<?xml version="1.0" encoding="utf-8"?>
<!-- Generator: Adobe Illustrator 15.0.0, SVG Export Plug-In . SVG Version: 6.00 Build 0)  -->
<!DOCTYPE svg PUBLIC "-//W3C//DTD SVG 1.1//EN" "http://www.w3.org/Graphics/SVG/1.1/DTD/svg11.dtd">
<svg version="1.1" id="Layer_1" xmlns="http://www.w3.org/2000/svg" xmlns:xlink="http://www.w3.org/1999/xlink" x="0px" y="0px"
	 width="40px" height="40px" viewBox="0 0 40 40" enable-background="new 0 0 40 40" xml:space="preserve">
<circle fill="#222222" cx="20" cy="20" r="20"/>
<path fill="#FFFFFF" d="M16.415,14.737h4.474v7.716c0,0,6.626,1.995,7.529-4.162c0.141-6.844-7.872-6.797-7.872-6.797
	s-5.036-0.327-7.514,3.695c-1.902,3.211,0.53,6.095,0.53,6.095l-3.242,2.884c0,0-4.879-6.017-0.109-12.533
	c6.205-7.015,16.681-2.806,16.681-2.806s8.106,3.305,5.331,12.065c-3.851,7.982-11.286,5.02-11.286,5.02v3.991
	c0,0-0.296,2.214-2.931,3.165c-2.634,0.966-5.051-0.857-5.051-0.857V28.19c1.201,1.23,2.822,1.933,3.461,0.14V14.737z"/>
</svg>
