<?xml version="1.0" encoding="utf-8"?>
<!-- Generator: Adobe Illustrator 15.0.0, SVG Export Plug-In . SVG Version: 6.00 Build 0)  -->
<!DOCTYPE svg PUBLIC "-//W3C//DTD SVG 1.1//EN" "http://www.w3.org/Graphics/SVG/1.1/DTD/svg11.dtd">
<svg version="1.1" id="Layer_1" xmlns="http://www.w3.org/2000/svg" xmlns:xlink="http://www.w3.org/1999/xlink" x="0px" y="0px"
	 width="40px" height="40px" viewBox="0 0 40 40" enable-background="new 0 0 40 40" xml:space="preserve">
<circle fill="#222222" cx="20" cy="20" r="20"/>
<g>
	<path fill="#FFFFFF" d="M28.682,27.813c0-0.681-0.255-0.958-0.724-1.214c-3.089-1.853-6.667-2.77-10.693-2.77
		c-2.344,0-4.602,0.299-6.881,0.809c-0.554,0.108-1.001,0.49-1.001,1.257c0,0.597,0.469,1.151,1.171,1.151
		c0.234,0,0.596-0.107,0.895-0.171c1.854-0.384,3.834-0.639,5.816-0.639c3.515,0,6.837,0.853,9.5,2.449
		c0.278,0.171,0.49,0.276,0.768,0.276C28.15,28.963,28.682,28.475,28.682,27.813z"/>
	<path fill="#FFFFFF" d="M33.561,16.715c0-0.874-0.383-1.341-0.959-1.662c-4.133-2.428-9.82-3.536-15.209-3.536
		c-3.174,0-6.113,0.341-8.734,1.129c-0.66,0.192-1.278,0.745-1.278,1.747c0,0.98,0.746,1.768,1.725,1.768
		c0.341,0,0.682-0.149,0.959-0.213c2.3-0.617,4.835-0.874,7.328-0.874c5.006,0,10.161,1.087,13.484,3.089
		c0.362,0.191,0.576,0.276,0.959,0.276C32.751,18.44,33.561,17.717,33.561,16.715z"/>
	<path fill="#FFFFFF" d="M30.131,21.21c-3.643-2.194-8.308-3.387-13.122-3.387c-3.067,0-5.176,0.447-7.243,1
		c-0.767,0.214-1.15,0.767-1.15,1.534c0,0.809,0.661,1.448,1.449,1.448c0.341,0,0.532-0.105,0.895-0.211
		c1.662-0.447,3.664-0.769,5.986-0.769c4.538,0,8.691,1.171,11.674,2.961c0.276,0.15,0.532,0.319,0.915,0.319
		c0.81,0,1.449-0.639,1.449-1.448C30.983,21.997,30.748,21.572,30.131,21.21z"/>
</g>
</svg>
