<?xml version="1.0" encoding="utf-8"?>
<!-- Generator: Adobe Illustrator 15.0.0, SVG Export Plug-In . SVG Version: 6.00 Build 0)  -->
<!DOCTYPE svg PUBLIC "-//W3C//DTD SVG 1.1//EN" "http://www.w3.org/Graphics/SVG/1.1/DTD/svg11.dtd">
<svg version="1.1" id="Layer_1" xmlns="http://www.w3.org/2000/svg" xmlns:xlink="http://www.w3.org/1999/xlink" x="0px" y="0px"
	 width="40px" height="40px" viewBox="0 0 40 40" enable-background="new 0 0 40 40" xml:space="preserve">
<circle fill="#222222" cx="20" cy="20" r="20"/>
<path fill="#FFFFFF" d="M29.087,11.251c-0.983-0.351-2.544-0.238-3.682,0.183c-0.521,0.183-1.11,0.52-1.56,0.885
	c-0.268,0.211-0.717,0.675-0.941,0.97c-0.633,0.815-1.11,1.742-1.518,2.951c-0.071,0.197-0.127,0.365-0.127,0.379
	c0.015,0.028,0.099,0,0.239-0.056c0.505-0.197,0.955-0.281,1.461-0.281c0.436,0,0.618,0.042,0.899,0.183
	c0.337,0.154,0.548,0.435,0.675,0.843c0.027,0.126,0.042,0.239,0.042,0.633c-0.015,0.421-0.015,0.52-0.057,0.73
	c-0.182,0.815-0.674,1.87-1.489,3.19c-0.998,1.602-1.729,2.39-2.233,2.432c-0.113,0.014-0.142,0-0.268-0.057
	c-0.464-0.225-0.899-1.139-1.293-2.698c-0.337-1.306-0.548-2.431-1.04-5.578C18,14.75,17.943,14.455,17.817,14.02
	c-0.52-1.855-1.49-2.727-2.951-2.67c-0.576,0.028-1.068,0.225-1.841,0.73c-0.73,0.478-1.363,0.998-2.459,1.995
	c-0.604,0.562-1.812,1.658-2.403,2.178c-0.351,0.323-0.393,0.365-0.365,0.408c0.014,0.014,0.267,0.337,0.548,0.717
	c0.337,0.435,0.534,0.674,0.548,0.66c0.028,0,0.154-0.084,0.281-0.183c0.506-0.352,1.082-0.731,1.293-0.829
	c0.183-0.099,0.211-0.099,0.337-0.084c0.295,0.028,0.661,0.309,0.956,0.745c0.379,0.577,0.801,1.616,1.138,2.754
	c0.042,0.183,0.52,1.925,1.04,3.893c0.66,2.417,0.998,3.653,1.068,3.836c0.815,2.08,1.743,3.218,2.881,3.499
	c0.252,0.069,0.758,0.069,1.096,0.014c1.827-0.323,3.893-1.883,6.295-4.777c1.237-1.476,2.67-3.429,3.598-4.932
	c0.857-1.364,1.603-2.839,1.925-3.865l0.07-0.183C30.871,17.926,32.529,12.516,29.087,11.251z"/>
</svg>
