<?xml version="1.0" encoding="utf-8"?>
<!-- Generator: Adobe Illustrator 15.0.0, SVG Export Plug-In . SVG Version: 6.00 Build 0)  -->
<!DOCTYPE svg PUBLIC "-//W3C//DTD SVG 1.1//EN" "http://www.w3.org/Graphics/SVG/1.1/DTD/svg11.dtd">
<svg version="1.1" id="Layer_1" xmlns="http://www.w3.org/2000/svg" xmlns:xlink="http://www.w3.org/1999/xlink" x="0px" y="0px"
	 width="200px" height="200px" viewBox="0 0 200 200" enable-background="new 0 0 200 200" xml:space="preserve">
<g>
	<path fill="#010101" d="M9.773,144.021c-0.196,0.924-0.021,1.868,0.494,2.659l6.826,10.512c0.654,1.009,1.767,1.611,2.969,1.611
		c0.643,0,1.27-0.174,1.819-0.501l62.171-30.211l5.729,68.003c0.067,1.894,1.628,3.414,3.536,3.414h12.535
		c1.909,0,3.472-1.521,3.538-3.414l5.726-68.003l62.175,30.211c0.551,0.329,1.177,0.505,1.82,0.505c1.205,0,2.314-0.604,2.97-1.613
		l6.827-10.51c1.035-1.603,0.612-3.739-0.941-4.829l-59.211-42.367l59.211-42.379c1.554-1.086,1.98-3.222,0.941-4.824l-6.827-10.512
		c-0.655-1.011-1.769-1.613-2.972-1.613c-0.642,0-1.27,0.175-1.818,0.505l-62.162,30.194l-5.738-67.983
		c-0.066-1.895-1.629-3.413-3.538-3.413H93.318c-1.908,0-3.469,1.518-3.536,3.413l-5.735,67.989L21.884,40.669
		c-0.55-0.332-1.174-0.503-1.818-0.503c-1.204,0-2.315,0.6-2.971,1.611l-6.826,10.512c-1.04,1.602-0.615,3.738,0.936,4.826
		L70.42,99.491l-59.215,42.365C10.466,142.372,9.961,143.134,9.773,144.021z"/>
</g>
</svg>
